<svg width="142" height="102" fill="none" xmlns="http://www.w3.org/2000/svg"><path d="M109.1 53.144c-.4-.4754-.9-.9507-1.3-1.4261-.6-.7605-1.2-1.5211-1.7-2.2816-1-1.4261-2.1-2.662-3.7-3.5176-.6-.2852-1.2-.4753-1.9-.4753-.4 0-.7.1901-.8.5704-.1.1901-.1.4753-.1.6655v4.2781c0 .6655.2 1.2359 1 1.5211.1.0951.2.2852.3.3803-.1.095-.3.1901-.4.1901H80.7c-.4 0-.7.0951-1.1 0-.1 0-.3-.1901-.3-.2852 0-.0951.1-.2852.2-.3803 0-.095.2-.095.2-.095.8-.0951 1-.3803 1.1-1.1409v-1.9964-2.5669c0-.4754-.2-.6655-.7-.7606-.2 0-.3-.095-.5-.095H75c-.6 0-.9.2852-.9.8556v4.3732c0 .3803.1.6655.3.9507.1.1901.4.2852.6.4753.1.0951.3.0951.4.0951.1.0951.1.1901.1.2852 0 .0951-.1.0951-.2.1901h-6.7c-.2 0-.3-.095-.5-.1901.1-.0951.2-.2852.4-.3803.8-.2852 1.2-.8556 1.2-1.7112V39.2638c0-.6655-.3-1.1408-.9-1.426-.1-.0951-.1-.1902-.2-.3803.1-.0951.2-.1901.3-.1901h6.4c.1 0 .2.095.4.1901-.1.0951-.2.2852-.3.2852-1.1.2852-1.2 1.0458-1.2 1.9014v4.1831c0 .6655.1.7605.8.7605h5.1c.4 0 .6-.1901.6-.5704v-4.8485c0-.8557-.4-1.331-1.3-1.5212h-.2c-.1-.095-.3-.1901-.4-.2852.2-.095.3-.095.5-.1901H105c.6 0 1.2.0951 1.8.2852 2.4.5704 3.4 2.2817 2.8 4.5633-.5 1.6162-1.6 2.662-3.3 3.0423-.2 0-.3.095-.5.1901.1.1902.2.3803.4.4754 2.3 1.6161 4.5 3.4225 6.4 5.514.5.9507 1.3.8556 2.2.7606 3.1-.4754 6.1-.6655 9.2-.5705 2.9.0951 5.8.2852 8.7.8557 1.3.2852 2.6.6654 3.7 1.3309.4.2852.9.5705 1.2.9507 1 1.0458.9 2.3768-.3 3.3275-.9.7605-1.9 1.1408-3 1.426-2.3.5704-4.7.6655-7 .4754-2.6-.2853-5.2-.6655-7.7-1.331-3.5-.9507-6.6-2.5669-9.4-4.7535-.2-.1901-.5-.1901-.7-.0951-3 .5705-6 1.1409-9 1.8064-8.3 1.9013-16.4 4.3732-24.3 7.3203-5.3 1.9965-10.5 3.8979-15.9 5.6091-5.3 1.9965-10.7 3.5176-16.2 4.5633-4.5.9507-9 1.5212-13.7 1.4261-5.4-.0951-10.6-.9507-15.5-3.2324-4-1.8063-7.3-4.4682-9.3-8.271-1.2-2.0916-1.8-4.3732-2.1-6.75-.4-3.1373-.1-6.1795 1.1-9.1266 1.5-3.8028 3.9-6.9401 7.6-9.1267 2.2-1.331 4.7-1.9965 7.3-1.8063.4 0 .9.095 1.3.1901.1 0 .3.1901.2.2852 0 .0951-.2.1902-.3.2852h-.3c-1.7-.4753-3.4-.095-5 .3803-3.5 1.0458-5.9 3.3274-7.4 6.4647-1.2 2.0916-1.7 4.3732-2 6.75-.6 5.7992 1.5 10.6478 5.6 14.8308 2.5 2.5669 5.7 4.088 9.2 5.0387 2.7.7606 5.4 1.1408 8.2 1.2359 3.6.1901 7.1-.0951 10.6-.5704 11.9-1.5211 23.3-4.6584 34.6-8.5563 4.6-1.6162 9.3-2.8521 13.9-4.183 5.9-1.7113 12-3.1373 18-4.3732 1.1-.2852 2-.3803 3-.6655 0 .0951 0 0 0 0zm5.1.0951l.1.1901c.1.0951.2.1901.2.2852 2 1.9014 4.3 3.2324 6.9 4.1831 2.4.8556 4.9 1.3309 7.4 1.426 2 0 4.1 0 6.1-.5704.8-.1902 1.5-.4754 2.1-1.0458.8-.7605.8-1.5211 0-2.2816-.3-.2853-.6-.5705-1-.6655-1.1-.3803-2.2-.8557-3.3-1.1409-3.3-.7605-6.7-1.1408-10.2-.9507-2.7.1902-5.5.3803-8.3.5705zm-18.8-8.176V39.549c0-.8556-.5-1.426-1.3-1.426s-1.3.5704-1.3 1.426v10.933c0 .9507.7 1.5211 1.4 1.4261.8 0 1.3-.5704 1.3-1.5211-.1-1.7113-.1-3.5176-.1-5.3239zm-7.3 0V39.549c0-.1901 0-.3802-.1-.5704-.2-.5704-.8-.9507-1.5-.8556-.7.0951-1.1.6655-1.1 1.426v11.0281c0 .1901 0 .3803.1.5704.2.5704.8.9507 1.5.8557.6-.0951 1.1-.5705 1.1-1.236.1-1.9013 0-3.8027 0-5.7041zm11.6-2.8521s.1 0 0 0v1.331c0 .6654.3.9507 1 .9507h1.3c.6 0 1.1 0 1.7-.0951 1.9-.4754 2.6-2.2817 2.2-4.088-.3-1.1408-1.7-2.0915-3.1-2.0915h-1.9c-.8 0-1.1.1901-1.1.9507-.1.9507-.1 1.9964-.1 3.0422z" fill="#A76F29"/><path d="M54.5 45.5384v-5.7042c0-.6654-.2-1.2359-.8-1.7112-.1-.0951-.2-.2852-.2-.3803.1-.0951.3-.1901.4-.1901h10.6c2.8 0 4.5 1.9014 4.6 4.183.2 2.757-1.7 4.3732-4.2 4.4683-1.8 0-3.5.0951-5.3.1901-.7 0-.8.1902-.8.7606 0 1.331 0 2.6619.1 3.9929 0 .5704.1 1.2359.7 1.7113.2.095.1.2852-.1.3802H46.9c-.2-.095-.4-.1901-.5-.1901.2-.0951.3-.2852.5-.2852 1.3-.2852 1.5-.5704 1-1.8063-.5-1.1409-.9-2.3768-1.3-3.5176-.3-.8556-.4-.8556-1-.8556h-2.9c-.6 0-.8.095-1 .6655-.5 1.2359-.9 2.3767-1.3 3.6126-.1.1901-.2.4754-.2.6655-.1.4753 0 .7605.4 1.0458.1.095.2.1901.2.2852-.1.095-.2.1901-.4.1901h-4.3c-.1 0-.2-.0951-.3-.1901.1-.0951.1-.2852.3-.2852.2-.0951.4-.0951.6-.0951.7-.1902 1.2-.5704 1.5-1.1408 2.2-5.1338 4.4-10.3626 6.6-15.4964 0-.0951.1-.1901.1-.2852.1-.0951.2-.1901.3-.1901.1 0 .2.095.2.1901 1.8 3.9929 3.7 7.8908 5.5 11.8837.6 1.331 1.2 2.6619 1.9 3.9929.2.3803.4.6655.7 1.0458.3.3803.8.2852 1-.0951.1-.2852.2-.5704.2-.7605-.1-2.1866-.2-4.088-.2-6.0845zm4.1-3.6126v2.3767c0 .4754.2.7606.7.7606.7.095 1.3.095 2 .095.4 0 .9-.095 1.3-.1901 1.8-.3803 3-1.2359 3-3.4225 0-1.7113-.9-2.662-2.6-2.662h-3.6c-.5 0-.8.1902-.8.7606v2.2817zM44 45.3483h1.1c.4 0 .5-.1902.3-.4754-.1-.2852-.2-.4753-.3-.7605-.2-.4754-.5-1.0458-.7-1.5211-.1-.1902-.3-.2853-.5-.3803-.1 0-.3.1901-.4.3803-.2.4753-.4.8556-.6 1.3309-.1.2852-.3.5704-.4.9507-.1.2852 0 .4754.4.4754H44zM34.4 30.2322v2.8521c0 .095-.1.2852-.2.3802l-.3-.2852c-1-1.7112-2.3-3.0422-4.4-3.6126-.4-.0951-1-.0951-1.4 0-1.4.2852-2 1.331-1.7 2.6619.3 1.2359 1.1 2.1866 2.1 2.9472 2.6 2.0915 4.8 4.4683 6.3 7.3204.9 1.7112 1.5 3.4225 1.4 5.3238 0 1.4261-.4 2.7571-1.1 3.993-1.3 2.1866-3.5 2.8521-6 2.757-1.4-.0951-2.7-.3803-4-.8556-1-.3803-2.5-.0951-3 .8556 0 .0951-.1.1901-.2.1901-.1.0951-.4.1902-.4.0951-.1-.0951-.2-.2852-.2-.4754 0-.5704.1-1.2359.1-1.8063-.1-1.9014-.3-3.8978-.5-5.7992v-.2852c.1-.0951.2-.2852.2-.3803l.3.2852c.6 2.2817 2.1 3.9929 4.3 5.2288 1 .4754 1.9.8557 3.1.9507 1.4.0951 2.5-.3803 3.3-1.5211.8-1.1408.8-2.2817.1-3.4225-.4-.5704-.8-1.2359-1.3-1.7112-2.7-2.7571-5.1-5.7993-7.3-8.8415-1.4-2.0915-1.4-4.2781-.1-6.3697 1.4-2.2816 4.3-3.4225 7.4-2.1866.4.1902.7.3803 1.1.5704.7.3803 1.3.2853 1.8-.2852.1-.095.3-.095.4-.1901 0 .0951.1.2852.1.3803v1.331l.1-.0951zM77.1 19.6794c.1-.2852.1-.3802.2-.5704-.4.2852-.7.6655-1.3.3803.4-.2852.7-.7606 1.1-.9507.9-.5704 1.4-1.2359 1.3-2.1866-.1-.5704-.1-1.1408 0-1.7113.1-.6654-.2-1.2359-.7-1.6161-.8-.5705-1.5-1.331-2.1-2.0916-.5-.6655-1.2-1.0457-1.9-1.426-.3-.1901-.6-.3803-.8-.5704-.1-.0951-.2-.1902-.4-.1902-.3-.095-.5 0-.5.3803 0 .1902-.1.3803-.2.6655.1.1901.1.6655.5.9507.2.0951 0 .4753-.4.7606-.5-.6655-.7-1.4261-.8-2.2817-.1-.3803 0-.6655.3-.9507.2-.1902.4-.4754.6-.6655.3-.3803.6-.4753 1.1-.095.2.19.4.3802.5.5703.5-.4753 1-.8556 1.4-1.2359.1-.095.1-.095.1-.1901.3-.5704.6-1.0458.8-1.6162.1-.095.1-.2852 0-.3803 0-.095-.3-.095-.4-.095-.5.095-1 .1901-1.4.2852-.2 0-.5-.095-.7-.2852-.1-.1902-.3-.5704.1-.7606.8-.4753 1.6-.9507 2.3-1.5211.2-.2852.2-.3803.2-.4753.1-.1902.1-.3803.2-.6655.3.4753.4.8556.7 1.1408.3.2852.8.3803 1.2.6655-.1.095-.1.1901-.2.1901.4.4754.8.9507 1.2 1.5211-.1 0-.1.0951-.2.0951-.1-.095-.3-.095-.4-.1901l-.1.095c.1.1902.3.3803.5.5705-.6.1901-.1.3802-.1.6654-.1 0-.2 0-.3.0951.1.095.1.1902.2.3803-.2 0-.3-.095-.4-.095v.095c.1.6655.3 1.331.4 1.9965.1.8556.8 1.426 1.4 1.9964.4.3803.8.6655 1.2 1.1409.3.3802.5.8556.7 1.2359.1.4753.4.5704.8.6654.2 0 .4 0 .7.0951 1 .1902 1.5 1.0458 1.2 2.0915-.1.3803-.3.6655-.4 1.0458-.3.5704-.5 1.0458-.8 1.6162 0 .0951-.1.1901-.2.1901v-.9507c-.3.1902-.5.2852-.8.4754.1-.1902.1-.4754.2-.5704.2-.4754.4-1.0458.7-1.5211.4-.8557.2-1.6162-.7-1.9965-.1 0-.4.0951-.5.1901-.3.8557-1 1.331-1.9 1.6162-.5.1901-.3.5704-.4.8556 0 .2852 0 .4754.1.7606.1.3803 0 .5704-.4.6655-.4.1901-.7.4753-1 .7605-.2.2852-.6.3803-.6.8557-.2 0-.6.095-.9.095zM73.2 8.2711c-.4-.6655-.6-.6655-1-.2852.3.095.6.1901 1 .2852zM64.1 19.5839c-.2 0-.5.0951-.7 0-.2-.095-.3-.2852-.4-.3803l-.1.0951c0 .0951.1.1902.1.2852-.5.1902-.5.0951-.8-.2852-.4-.4753-.9-.8556-1.4-1.2359-.3-.1901-.5-.3803-.4-.7605.1-.3803.1-.8557 0-1.236 0-.095-.2-.2852-.3-.2852-.9-.2852-1.5-.7605-1.9-1.6161-.1-.2853-.3-.3803-.6-.1902-.9.6655-1 1.0458-.5 2.0915.3.5705.5 1.236.8 1.8064 0 0-.1 0-.1.095-.2-.095-.5-.2852-.7-.3802v.9507H57c0-.0951-.1-.1902-.1-.2853-.3-.5704-.5-1.0457-.8-1.6161-.2-.4754-.4-1.0458-.5-1.5211-.1-.8557.6-1.5212 1.5-1.6162h.5c.4-.0951.7-.1902.7-.5704.1-.7606.6-1.331 1.1-1.8064.2-.1901.4-.2852.6-.4753.9-.7606 1.6-1.5211 1.6-2.757 0-.4754.2-.9507.3-1.5211-.1 0-.2 0-.4.095.1-.095.1-.2852.2-.3803h-.3c-.1-.1901.5-.5704-.1-.6654.2-.1902.3-.3803.5-.5705l-.1-.095c-.1.095-.3.095-.4.1901 0 0-.1 0-.1-.095.4-.4754.8-.9508 1.2-1.5212-.1-.095-.2-.095-.3-.1901.5-.1901.9-.3803 1.2-.6655.3-.2852.5-.6655.7-1.1408.1.095.2.2852.2.3802 0 .3803.2.4754.5.6655.7.3803 1.4.9507 2 1.331.3.095.1.4753 0 .6655-.1.1901-.5.2852-.7.1901l-1.5-.2852c-.3-.095-.4.1902-.3.3803.5.7606.6 1.7112 1.4 2.3767.3.2853.6.5705 1 1.0458.1-.1901.1-.3803.3-.4753.5-.4754.9-.7606 1.4.095.1.0951.1.2852.3.3803 1 .7606.5 1.6162.2 2.3767-.1.2853-.2.6655-.4 1.0458-.6-.3803-.6-.5704-.2-1.0458.2-.1901.2-.5704.2-.8556 0-.095-.1-.2852-.1-.4753 0-.4754-.3-.5705-.7-.3803-.5.2852-1 .7606-1.6 1.0458-1 .4753-1.4 1.3309-2 1.9964-.4.4754-.9.8556-1.4 1.2359-.5.3803-.8.8556-.8 1.5211.1.6655 0 1.331 0 1.9965 0 .8556.4 1.5211 1.2 1.9965.4.2852.8.6654 1.2.9507l-.1.095zM67 8.2706c.4-.095.7-.1901 1-.2852-.4-.3802-.6-.3802-1 .2852z" fill="#A76F29"/><path d="M59.7 20.8203c-.2-.4753-.3-.8556-.4-1.3309-.1-.3803 0-.7606.4-.8557.3-.095.6-.095.9 0 .4.1902.5.5704.4.9507-.1.3803-.3.7606-.4 1.1409.1.095.1.1901.2.2852.5.4753.9.6655 1.7.4753 2.6-.7605 4.9-.0951 6.8 1.7113l.2.1901c.1.0951.1.1901.3.2852.2-.1901.4-.4753.5-.5704 2.1-1.9014 4.5-2.3767 7.3-1.5211.2.0951.4 0 .5-.0951.3-.1901.6-.4753.9-.7605-.2-.3803-.4-.7606-.4-1.0458s0-.5704.2-.8556c.2-.3803.6-.3803 1-.2852.3.095.6.5704.5.9507-.1.3802-.3.7605-.4 1.2359.3.1901.6.5704 1 .8556.1.0951.2.0951.3 0 1-.3803 2.1-.4754 3.1-.0951.1 0 .3 0 .4-.0951.3-.095.6-.2852.9-.2852.6-.095 1.1.2852 1.1.8557 0 .5704-.4.9507-1 .9507-.3 0-.6-.1902-1-.2853-.1 0-.3-.095-.5-.095-1 .3803-2 .3803-3-.0951-.1-.0951-.3 0-.5 0-.3.2852-.6.5704-.9.7606.1.3802.3.7605.4 1.1408.1.5704-.2 1.0458-.8 1.1408-.5 0-1-.3802-.9-.9507 0-.2852.2-.6654.3-.9507.1-.1901.1-.2852 0-.4753l-.1-.0951c-.5-.4753-.9-.7605-1.7-.4753-1.4.4753-2.9.3803-4.4-.0951-.3-.0951-.5-.0951-.7.0951-.5.3803-1 .7605-1.6 1.2359-.3.1901-.3.3803-.1.6655.5.8556.8 1.8063.5 2.8521-.1.2852-.2.4753-.4.6654-.4.5705-1 .5705-1.4 0-.5-.7605-.6-1.5211-.4-2.3767.1-.3803.3-.8556.5-1.2359.2-.2852.1-.3803-.1-.5704-.3-.1902-.5-.4754-.8-.6655-.6-.4754-1.2-.7606-2.1-.4754-1.4.4754-2.9.3803-4.2-.095-.3-.0951-.5-.0951-.7.095-.1.0951-.3.1902-.4.2853-.5.4753-.5.3802-.2 1.0457.1.2852.2.6655.2 1.0458 0 .4753-.5.6655-.9.6655-.4-.0951-.8-.3803-.7-.8557 0-.4753.2-.9506.3-1.5211-.2-.1901-.6-.4753-.9-.7605-.1-.0951-.2-.0951-.3 0-1 .4753-2.1.4753-3.1.095-.1 0-.3 0-.4.0951-.4.0951-.7.2852-1.1.2852-.6.0951-.9-.3803-1-.8556 0-.5704.4-.9507 1-.8556.3 0 .7.1901 1 .2852.2 0 .4.0951.5 0 1-.3803 2-.2852 3 .0951.1.095.3.095.4 0 .6-.3803.9-.6655 1.2-.8557zm10.2 3.8028c-.9 1.0458-.8 2.662 0 3.2324.8-.8557.8-2.0916 0-3.2324zm-8.7-2.5669c-.4-.2852-.7-.5704-1.1-.8556-.3.2852-.6.6655-.9.9507l.9.8556c.4-.3803.7-.6655 1.1-.9507zm12.1 0c.9.4754 3.3.3803 3.8 0-1.2-.4753-2.6-.4753-3.8 0zm-10.7 0c.7.4754 3.2.4754 3.7 0-1.1-.4753-2.6-.4753-3.7 0zm17 .8557c.3-.2853.7-.5705 1-.8557-.4-.2852-.7-.5704-1-.8556-.3.2852-.7.5704-1 .8556.3.2852.7.5704 1 .8557zm-21.8-.8557c-.7-.2852-1.4-.2852-2 0 .6.2852 1.3.2852 2 0zm24.1 0c.7.2852 1.5.2852 2.1 0-.6-.2852-1.6-.2852-2.1 0zm-27.3.0951v-.1901c-.3-.0951-.5-.1902-.8-.1902-.1 0-.3.1902-.3.2852 0 .0951.2.2852.3.2852.3 0 .5-.095.8-.1901zm30.5-.1901v.1901c.2.0951.5.1901.7.2852.2.0951.4-.0951.4-.2852 0-.2852-.2-.3803-.5-.3803-.1 0-.3.0951-.6.1902zm-5.4 1.9964h-.2c-.1.2852-.2.4754-.2.7606 0 .095.2.1901.3.2852.1-.0951.2-.2852.2-.3803 0-.1901-.1-.3803-.1-.6655zm-19.5 0H60c-.1.1902-.2.4754-.2.6655 0 .0951.2.2852.3.3803.1-.0951.3-.2852.3-.3803 0-.1901-.1-.4753-.2-.6655zm-.1-3.8028h.2c.1-.2852.1-.5704.1-.8556 0-.0951-.2-.1901-.3-.2852-.1.0951-.2.1901-.2.2852 0 .3803.1.5704.2.8556zm19.4 0h.2c.1-.1901.2-.4753.2-.6654 0-.0951-.1-.2853-.2-.3803-.1.095-.3.1901-.3.2852-.1.2852 0 .4753.1.7605z" fill="#A76F29"/><path d="M74.8 11.5986c0 2.1866.2 4.3732-.8 6.4648-.8 1.6161-1.8 2.9471-3.6 3.8027-.3.0951-.5.0951-.8 0-2-.9507-3.1-2.6619-3.8-4.6584-.3-.9507-.5-1.9964-.5-2.9471v-2.662h9.5zm-.2.1902h-9v3.0422h9v-3.0422zm-6.4 5.3239c1-.0951 1.1.5704 1.3 1.2359h.8c.1 0 .2-.0951.3-.1902.1-.2852.2-.5704.4-.7605.2-.1902.6-.1902.9-.2852 0-.2852-.2-.4754-.5-.5705-.6-.1901-1 0-1.3.4754-.5-.4754-.8-.5704-1.2-.4754-.4-.095-.6.1902-.7.5705zm1.1 2.5668h1.6c-.1-.7605-.1-.9507-.6-.9507-.9 0-.9 0-1 .9507zm.1-1.2359c0 .0951 0 .0951 0 0 .4.0951.8.0951 1.2.0951v-.0951h-1.2zM93.4 32.5138c0 1.6162-1.4 2.8521-3.1 2.8521-1.7 0-3.1-1.331-3-2.9472 0-1.7112 1.5-2.9471 3.3-2.852 1.5.095 2.8 1.3309 2.8 2.9471zM69.8 93.9287h2.4c.9 0 1.5.5704 1.6 1.2359.1.6655-.3 1.331-1.1 1.7113-.1 0-.2.095-.4.1901.8.8556 1.4 1.8063 2.4 2.5669 0-.1902.1-.3803.1-.5704v-4.2782c0-.2852-.1-.5704-.2-.8556H76c-.1.3803-.2.7606-.2 1.0458v3.8028c0 .2852.1.6654.2 1.0457-.7 0-1.5-.0951-2.3-.0951-.2 0-.4-.1901-.5-.2852-.7-.8556-1.4-1.7112-2.2-2.6619.4-.0951.6-.1901.9-.2852.6-.2852.9-.7606.7-1.331-.1-.4753-.8-.7605-1.4-.6655-.1 0-.2.0951-.4.0951V98.7773c0 .3802.1.6654.2 1.0457h-1.5c.1-.3803.2-.6655.2-1.0457v-4.088c.3-.1902.2-.4754.1-.7606zM34.3 82.5204c-.7 1.6162-1.3 3.2324-2 4.9436-.5-.1901-.7-.5704-.8-.9507-.5-1.1408-1.1-2.3767-1.6-3.6126-.1-.0951-.1-.2852-.2-.3803-.1.8557-.3 1.8063-.4 2.662-.1.3802-.1.7605-.1 1.0457 0 .3803.1.6655.1 1.0458H28c.6-.9507.5-2.0915.7-3.1373l.3-1.9965c0-.2852-.1-.5704-.1-.8556h1.5c.6 1.4261 1.3 2.8521 1.9 4.2781.6-1.5211 1.2-2.9471 1.8-4.3731h1.3c0 .4753 0 .9506.1 1.5211.1 1.1408.3 2.2816.5 3.4225.1.3802.2.6654.3 1.0457h-1.5c0-.2852.1-.5704.1-.8556-.1-1.1408-.3-2.4718-.6-3.8028.1.0951.1 0 0 0zM83.5 81.2844c2.1 0 3.6 1.5211 3.4 3.4225-.2 1.8064-2.1 3.0423-4.1 2.757-2.5-.3802-3.7-2.852-2.3-4.7534.7-.9507 1.8-1.4261 3-1.4261zm-2.4 3.0422c0 .6655.2 1.236.6 1.8064.6.6655 1.4.9507 2.4.7605.9-.1901 1.4-.7605 1.6-1.5211.1-.3803.1-.8556 0-1.2359-.2-1.1408-1.3-2.0915-2.4-1.9964-1.3-.0951-2.2.8556-2.2 2.1865zM41.6 81.4746c1 0 2-.095 3.1 0 1.6.1902 2.5 1.2359 2.6 2.757 0 1.5212-1 2.662-2.5 2.9472-1.1.1901-2.1.0951-3.1.1901.1-.4753.2-.8556.2-1.2359v-3.8978c-.1-.1902-.2-.4754-.3-.7606zm1.2.6655v4.2782c0 .095.2.2852.3.2852 1.8.1901 3.5-.7606 2.9-3.0423-.2-.7605-.7-1.2359-1.5-1.426-.5-.0951-1-.0951-1.7-.0951zM73.5 87.3689c.1-.3803.2-.7606.2-1.0458v-3.8028c0-.2852-.1-.6655-.2-.9507 1 0 2-.0951 3.1 0 1.6.1901 2.5 1.2359 2.5 2.757 0 1.5211-.9 2.662-2.5 2.9472-.2 0-.3.0951-.5.0951h-2.6zm1.3-5.2289v3.7077c0 .9507 0 .9507 1 .8557 1.4-.0951 2.3-.9507 2.4-2.1866.1-1.331-.7-2.1866-2-2.3768-.5-.0951-1 0-1.4 0zM88.4 82.1401v4.3732c0 .2852.2.5704.3.8556h-1.5c.1-.3802.2-.7605.2-1.2359v-3.7077c0-.2852-.1-.6655-.2-.9507.8 0 1.7-.095 2.6 0 .8.0951 1.3.5704 1.4 1.1409.1.6655-.2 1.2359-.9 1.6161-.2.0951-.3.1902-.6.2853.9.9507 1.6 2.0915 2.8 2.757-.8.2852-1.5.0951-2-.4754-.7-.8556-1.3-1.6162-2-2.4718.4-.0951.7-.1901.9-.2852.6-.2852.9-.7605.7-1.2359-.1-.4753-.6-.7606-1.3-.7606 0 0-.2 0-.4.0951zM69.3 99.823h-1.6c0-.2852.1-.4754 0-.7606-.2-.4753-.3-1.1408-.6-1.426-.4-.2852-1-.0951-1.6-.0951h-.4c-.3 0-.4.0951-.5.2852-.1.3803-.3.7606-.4 1.1408-.1.1902 0 .4754 0 .7606h-1.3c.3-.4753.5-.9507.8-1.426.5-1.2359 1-2.4718 1.6-3.7077.1-.2853.2-.5705-.1-.8557h1.3c.1 0 .3.1902.3.2852.6 1.4261 1.2 2.8521 1.9 4.2782.1.6655.3 1.1408.6 1.5211zM65 96.8758h1.8c-.3-.7605-.6-1.426-.9-2.1866-.3.8556-.6 1.5211-.9 2.1866zM47.9 87.369h-1.4c.2-.3803.5-.8556.7-1.2359.6-1.2359 1.1-2.4718 1.6-3.8028.1-.2852.1-.5704.1-.8556h-.1c.4 0 1-.0951 1.3.0951.3.1901.4.6655.6 1.0457.5 1.2359 1 2.4718 1.6 3.7078.2.3802.4.6654.7 1.0457h-1.7c.3-.1901.2-.4753.1-.7605-.2-.4754-.3-1.0458-.6-1.331-.3-.1902-1-.0951-1.5-.0951-.8 0-.8 0-1.1.6655-.1.1901-.2.4754-.2.6655-.2.2852-.1.5704-.1.8556zm2.6-2.9471c-.3-.7606-.6-1.4261-.9-2.1866-.3.7605-.6 1.426-.9 2.1866h1.8zM98.4 87.4641c.3-.1901.5-.3803.8-.4753 1.6-.4754 2.6-1.8063 2.5-3.2324 0-.6655-.3-1.2359-1-1.6162-.5-.2852-1.2-.1901-1.6.1902-.4.3802-.5 1.1408-.2 1.7112.3.4754.8.7606 1.4.6655.2 0 .5-.0951.7-.1901-.3.5704-.8.8556-1.5.7605-.8-.095-1.4-.4753-1.7-1.1408-.6-1.331.5-2.8521 2.1-2.9472 1.9-.095 3.1 1.4261 2.6 3.2324-.5 1.7113-1.8 2.4718-3.5 2.9472-.2.095-.5.095-.7.095.2.0951.1 0 .1 0zM107.4 86.6084c.6.095 1.2.1901 1.8.1901.6 0 1.1-.1901 1.4-.6655.4-.6655.1-1.426-.7-1.7112-.5-.1902-1.1-.1902-1.6 0-.2 0-.4.095-.6.1901.1-1.0458.1-2.0915.2-3.1373h3.4v1.0458c-.7-.4754-1.5-.3803-2.3-.3803-.1 0-.2.1901-.3.2852v1.1408c.2 0 .3 0 .5-.095 1.2-.1902 2.3.3802 2.6 1.3309.4 1.1409-.3 2.2817-1.7 2.5669-.6.0951-1.3 0-2 0-.1 0-.2-.095-.3-.1901-.2-.0951-.3-.3803-.4-.5704zM76.7 98.7772c.5.1902 1 .3803 1.6.5704.5.0951 1 0 1.4-.1901.5-.2852.6-.8556.1-1.2359-.3-.2852-.7-.3803-1-.5704-.4-.1902-.9-.3803-1.3-.6655-.5-.2852-.8-.7606-.7-1.4261.1-.6655.5-.9507 1.1-1.2359.8-.2852 1.6-.2852 2.4-.095.3.095.4.1901.3.3802v.5705c-.5-.0951-1.1-.2853-1.6-.3803-.2 0-.4 0-.5.095-.7.1902-.8.8557-.2 1.331.4.2852.8.4754 1.2.6655.3.1901.7.2852 1 .5704.8.5704.9 1.4261.2 2.1866-.8.8554-1.8.8554-2.9.7604-1-.285-1.1-.4752-1.1-1.3308zM60.6 97.066c.1 0 .2-.095.3-.095.2-.0951.4-.0951.6-.2853.5-.2852.8-.8556.6-1.426-.1-.4754-.5-.7606-1.2-.7606s-.7 0-.7.6655v3.6127c0 .3803.2.6655.3 1.0457h-1.7c.4-.3802.4-.8556.4-1.3309v-3.5176c0-.3803-.1-.6655-.2-1.0458.9 0 1.9-.095 2.9 0 .9.0951 1.4.6655 1.4 1.4261.1.6655-.4 1.426-1.2 1.6162-.4.1901-.9.2852-1.5.095zM37.1 87.369c.1-.3803.2-.6655.2-1.0457v-3.8979c0-.3803-.1-.6655-.2-1.0458h3.3v.9507c-.7-.4753-1.4-.3802-2.1-.2852v1.6162h1.5v.7606c-.5 0-1-.0951-1.5-.0951v2.0915c1 .0951 2 .2852 3-.4753-.2.4753-.3.7605-.4 1.1408 0 .0951-.2.1902-.3.1902-1.1.095-2.4.095-3.5.095zM65 81.4746h3.3v.9507c-.5-.3803-1.1-.3803-1.7-.2852-.3 0-.4.0951-.4.3803v1.2359h1.5v.7605c-.5 0-1-.095-1.5-.095v2.0915c1 .0951 2 .2852 3-.4754-.2.4754-.3.7606-.4 1.1409 0 .095-.2.095-.3.095H65c.1-.3802.2-.7605.2-1.1408v-3.7077c0-.1901-.1-.5704-.2-.9507z" fill="#A76F29"/><path d="M104.1 86.6084c1.6.1901 1.9.1901 3.2-.2852-.2.3802-.3.6654-.5.9506 0 .0951-.2.1902-.3.1902h-4.2c.1-.1902.2-.2852.3-.3803.8-1.0458 1.6-2.1866 2.4-3.2324.3-.3802.6-.8556.2-1.3309-.3-.3803-.8-.4754-1.5-.2852-.3.095-.7.2852-1 .3802.1-.7605.4-1.1408 1.2-1.1408.5 0 1.1 0 1.5.1902.9.2852 1.2 1.0457.8 1.9013-.4.7606-1 1.4261-1.5 2.1866-.1.1902-.3.4754-.6.8557zM117.4 40.2145c0 1.6162-1.3 2.8521-3.1 2.757-1.7 0-2.9-1.2359-2.9-2.8521s1.4-2.8521 3.1-2.8521c1.6.0951 2.9 1.4261 2.9 2.9472zm-3 2.2817c1.4 0 2.4-1.0458 2.4-2.3768 0-1.2359-1.1-2.2817-2.4-2.2817-1.4 0-2.4 1.0458-2.4 2.2817 0 1.331 1.1 2.3768 2.4 2.3768zM57.2 86.6084c1.5.1901 1.8.1901 3-.3803-.2.3803-.3.7605-.4 1.0458 0 .095-.2.095-.3.095h-3.6c.4-.4753.3-.9507.3-1.426v-3.4225c0-.3803-.1-.6655-.2-1.0458h1.4c-.1.3803-.2.6655-.2 1.0458v4.088zM61.8 86.6084c1.1.095 2.1.2852 3-.3803-.1.2852-.3.6655-.4.9507 0 .095-.2.1901-.3.1901h-3.6c.4-.4753.4-.9507.3-1.426v-3.4225c0-.3803-.1-.6655-.2-1.0458H62c-.1.3803-.2.7606-.2 1.2359v3.8979zM96.3 87.369c.1-.2852.3-.6655.3-.9507v-3.8028h-.9l1.8-1.426V86.3232c0 .3803.2.7606.3 1.1408-.4-.095-1-.095-1.5-.095zM53.6 87.3691c.1-.3803.2-.6655.2-1.0458v-3.8028c0-.2852-.1-.6655-.2-.9507H55c-.1.3803-.2.7606-.2 1.1409v3.7077c0 .2852.1.6655.2.9507h-1.4zM79.3 82.9958c.2-.1902.2-.2852.3-.3803.1-.0951.1-.1901.2-.3803-.1 0-.1-.0951-.2-.0951-.3-.095-.5-.2852-.4-.5704.1-.1901.3-.3802.5-.3802s.5.1901.6.3802c.2.3803-.3 1.331-.7 1.5211 0 0-.2-.095-.3-.095zM70.1 14.0704c.4-.4753.4-.9507 0-1.5211h1.6c.1 0 .2.2852.4.3803-.4.1901-.8-.4754-1.1.0951.2-.0951.3-.0951.5-.0951v.6655c-.1-.0951-.3-.0951-.4-.1902V13.5c0 .0951.1.3803.1.3803.2 0 .4 0 .5-.0951.1-.095.2-.2852.3-.3803.1.5705 0 .7606-.5.7606h-1.3c-.1 0-.1-.0951-.1-.0951zM67.9 14.0704h-1c0-.0951 0-.1902.1-.2852-.5-.1902-.6-.1902-.5.2852h-.7c.2-.4754.7-.8556.4-1.5211.6-.1902.8-.1902 1.1.3802.2.4754.4.7606.6 1.1409zM74.4 13.3099c-.1.8556-.2.9507-.9.8556-.3 0-.6 0-1-.0951v-.095c.4-.3803.5-.8557 0-1.4261h1.1c-.1.2852-.2.5704-.2.9507 0 .0951.1.2852.2.3803.1 0 .3 0 .4-.0951.1-.1901.2-.2852.4-.4753zM69.2 12.5493h.6c-.2.4754-.5.8556-.7 1.331-.1.0951-.2.1901-.3.1901-.1 0-.2-.095-.3-.1901-.3-.3803-.5-.8556-.8-1.331h.8c.1.2852.1.5704.2.7606h.2c.2-.1902.2-.4754.3-.7606z" fill="#A76F29"/><path d="M114 41.7355h-.8v-3.2323c.7 0 1.3 0 1.9.095.4 0 .7.2853.7.7606.1.4753-.1.6655-.5.8556.2.1902.4.3803.4.6655.1.2852 0 .4754.1.8556h-.5c-.3 0-.4-.095-.4-.3802 0-.6655-.2-.7606-.9-.6655v1.0457zm0-1.5211c.4-.095.6-.1901.9-.3803.1 0 .1-.3802 0-.4753-.2-.0951-.5-.1901-.8-.2852-.1.3803-.1.6655-.1 1.1408z" fill="#A76F29"/></svg>