<svg width="84" height="84" fill="none" xmlns="http://www.w3.org/2000/svg"><path d="M19.1 10.1H0v2.4h19.1v-2.4zM84 10.1H64.9v2.4H84v-2.4z" fill="#AA6C09"/><path d="M20.7 52.7L4.8 11.3l-2.1.9 16.2 42.2.6 1.5c.1-.4 1.1-2.7 1.2-3.2zM24.7 37.8l-9.8-25.6 1.5-.7.6-.2 9.8 25.6-2.1.9z" fill="#AA6C09"/><path d="M20.3 53.8l6.5-16.9-2.1-.9-6.4 16.8 2 1zM21.3 38.7l-11-28.6-2 .9 11.2 29.4.6 1.5c.1-.4 1.1-2.8 1.2-3.2zM42.2 10.1H23.1v2.4h19.1v-2.4z" fill="#AA6C09"/><path d="M43.3 52.7l-16-41.4-2.1.9 16.2 42.2.6 1.5c.2-.4 1.1-2.7 1.3-3.2zM47.3 37.8l-9.8-25.6 1.5-.7.5-.2 9.8 25.6-2 .9z" fill="#AA6C09"/><path d="M42.9 53.8l6.4-16.9-2-.9-6.5 16.8 2.1 1zM43.9 38.7l-11-28.6-2.1.9L42 40.4l.6 1.5c.2-.4 1.1-2.8 1.3-3.2zM45.3219 71.9996h16.8v-2.4h-16.8v2.4z" fill="#AA6C09"/><path d="M46.7 61.9l3.2 8.4-1.5.7-.5.3-3.2-8.5 2-.9z" fill="#AA6C09"/><path d="M51.1 45.9l-6.4 16.9 2 .9 6.5-16.8-2.1-1z" fill="#AA6C09"/><path d="M49.4 52.6c-.4 1-.9 2-1.3 2.9L54.4 72l2.1-.9-7.1-18.5z" fill="#AA6C09"/><path d="M57.9 71.1l22.7-59.4-2-.9-22.8 59.4 2.1.9z" fill="#AA6C09"/><path d="M50.7 47l7.4 19.2 2.1-.9-7.6-19.9-.6-1.6c-.2.4-1.1 2.7-1.3 3.2z" fill="#AA6C09"/><path d="M56.2 56.3l17.7-46.2 2.1.9-18 46.9-.6 1.5c-.1-.3-1-2.7-1.2-3.1zM54.3 66.1l2.5-6.5-1.5-2.3-3.1 7.9 2.1.9zM22.4046 71.9996h16.8v-2.4h-16.8v2.4z" fill="#AA6C09"/><path d="M24.2 61.9l3.2 8.4-1.5.7-.6.3-3.2-8.5 2.1-.9z" fill="#AA6C09"/><path d="M28.6 45.9l-6.5 16.9 2.1.9 6.4-16.8-2-1z" fill="#AA6C09"/><path d="M26.8 52.6c-.4 1-.9 2-1.3 2.9L31.8 72l2.1-.9-7.1-18.5z" fill="#AA6C09"/><path d="M35.4 71.1l2.2-5.9-2-.9-2.3 5.9 2.1.9z" fill="#AA6C09"/><path d="M28.2 47l7.4 19.2 2.1-.9-7.7-20-.6-1.5c-.1.4-1.1 2.7-1.2 3.2z" fill="#AA6C09"/><path d="M31.8 66.1l2.5-6.5-1.6-2.3-3 7.9 2.1.9zM58.7 36.9L69 10.1l2.1.9-10.6 27.6-.6 1.5c-.1-.4-1-2.8-1.2-3.2z" fill="#AA6C09"/></svg>