<?xml version="1.0" encoding="UTF-8"?>
<!DOCTYPE svg PUBLIC "-//W3C//DTD SVG 1.1//EN" "http://www.w3.org/Graphics/SVG/1.1/DTD/svg11.dtd">
<!-- Creator: CorelDRAW 2020 (64-Bit) -->
<svg xmlns="http://www.w3.org/2000/svg" xml:space="preserve" width="421px" height="194px" version="1.1" style="shape-rendering:geometricPrecision; text-rendering:geometricPrecision; image-rendering:optimizeQuality; fill-rule:evenodd; clip-rule:evenodd"
viewBox="0 0 100.29 46.33"
 xmlns:xlink="http://www.w3.org/1999/xlink"
 xmlns:xodm="http://www.corel.com/coreldraw/odm/2003">
 <defs>
  <style type="text/css">
   <![CDATA[
    .fil0 {fill:#EA5F20;fill-rule:nonzero}
   ]]>
  </style>
 </defs>
 <g id="Layer_x0020_1">
  <metadata id="CorelCorpID_0Corel-Layer"/>
  <path class="fil0" d="M9.94 30.29l1.07 1.35 0.61 0.75c1.2,1.47 1.79,3.03 1.79,4.67 0,1.6 -0.52,2.99 -1.58,4.19 -1.44,1.65 -3.32,2.48 -5.66,2.48 -1.8,0 -3.28,-0.56 -4.44,-1.67 -1.15,-1.11 -1.73,-2.54 -1.73,-4.27 0,-2.13 0.9,-3.9 2.69,-5.32 0.96,-0.75 1.83,-1.13 2.63,-1.13 0.43,0 0.76,0.12 1.03,0.36 0.26,0.24 0.39,0.55 0.39,0.93 0,0.51 -0.3,0.95 -0.91,1.32l-0.93 0.58c-0.54,0.33 -0.98,0.79 -1.34,1.39 -0.36,0.6 -0.53,1.19 -0.53,1.77 0,0.92 0.31,1.68 0.93,2.28 0.63,0.6 1.42,0.9 2.39,0.9 1.06,0 1.98,-0.4 2.77,-1.19 0.78,-0.79 1.17,-1.73 1.17,-2.8 0,-0.69 -0.16,-1.3 -0.47,-1.86 -0.32,-0.56 -1,-1.42 -2.06,-2.59 -0.74,-0.81 -1.26,-1.53 -1.58,-2.14l-3.14 0c-1.07,0 -1.61,-0.37 -1.61,-1.1 0,-0.54 0.19,-0.95 0.56,-1.25 0.38,-0.29 0.91,-0.43 1.6,-0.43l1.98 0c0.16,-1.54 0.86,-2.81 2.11,-3.81 1.25,-1.01 2.74,-1.51 4.49,-1.51 1.31,0 2.37,0.36 3.2,1.09 0.82,0.72 1.24,1.65 1.24,2.8 0,1.53 -0.66,2.7 -1.97,3.51 -0.74,0.47 -1.92,0.7 -3.54,0.7l-1.16 0zm-1.4 -2.78l2.79 0c1.56,0 2.35,-0.46 2.35,-1.37 0,-0.36 -0.16,-0.64 -0.49,-0.86 -0.32,-0.22 -0.74,-0.32 -1.28,-0.32 -0.83,0 -1.59,0.25 -2.27,0.77 -0.69,0.52 -1.05,1.11 -1.1,1.78z"/>
  <path id="1" class="fil0" d="M63.03 30.29l1.07 1.35 0.62 0.75c1.19,1.47 1.79,3.03 1.79,4.67 0,1.6 -0.53,2.99 -1.58,4.19 -1.45,1.65 -3.33,2.48 -5.67,2.48 -1.8,0 -3.28,-0.56 -4.44,-1.67 -1.15,-1.11 -1.73,-2.54 -1.73,-4.27 0,-2.13 0.9,-3.9 2.7,-5.32 0.95,-0.75 1.83,-1.13 2.63,-1.13 0.42,0 0.76,0.12 1.02,0.36 0.26,0.24 0.4,0.55 0.4,0.93 0,0.51 -0.31,0.95 -0.91,1.32l-0.94 0.58c-0.53,0.33 -0.98,0.79 -1.34,1.39 -0.35,0.6 -0.53,1.19 -0.53,1.77 0,0.92 0.31,1.68 0.94,2.28 0.62,0.6 1.41,0.9 2.38,0.9 1.06,0 1.98,-0.4 2.77,-1.19 0.78,-0.79 1.18,-1.73 1.18,-2.8 0,-0.69 -0.16,-1.3 -0.48,-1.86 -0.32,-0.56 -1,-1.42 -2.06,-2.59 -0.73,-0.81 -1.26,-1.53 -1.58,-2.14l-3.14 0c-1.07,0 -1.61,-0.37 -1.61,-1.1 0,-0.54 0.19,-0.95 0.57,-1.25 0.37,-0.29 0.91,-0.43 1.59,-0.43l1.99 0c0.15,-1.54 0.86,-2.81 2.1,-3.81 1.25,-1.01 2.75,-1.51 4.49,-1.51 1.31,0 2.37,0.36 3.2,1.09 0.83,0.72 1.24,1.65 1.24,2.8 0,1.53 -0.66,2.7 -1.96,3.51 -0.75,0.47 -1.93,0.7 -3.54,0.7l-1.17 0zm-1.4 -2.78l2.8 0c1.56,0 2.34,-0.46 2.34,-1.37 0,-0.36 -0.16,-0.64 -0.48,-0.86 -0.32,-0.22 -0.75,-0.32 -1.28,-0.32 -0.84,0 -1.6,0.25 -2.28,0.77 -0.68,0.52 -1.05,1.11 -1.1,1.78z"/>
  <path id="2" class="fil0" d="M74.33 29.82c0.81,-0.43 1.48,-0.65 2.01,-0.65 0.74,0 1.35,0.21 1.83,0.63 0.47,0.41 0.71,0.94 0.71,1.58 0,0.39 -0.09,0.81 -0.27,1.27l-1.22 3.05 1.33 0c0.99,0 1.47,0.35 1.47,1.03 0,0.47 -0.17,0.84 -0.52,1.1 -0.34,0.27 -0.82,0.4 -1.45,0.4l-2.33 0c-0.51,0 -0.92,-0.15 -1.26,-0.43 -0.34,-0.28 -0.51,-0.63 -0.51,-1.04 0,-0.28 0.09,-0.63 0.27,-1.07l1.08 -2.62c0.13,-0.34 0.2,-0.59 0.2,-0.76 0,-0.44 -0.3,-0.66 -0.89,-0.66 -0.79,0 -1.46,0.68 -2,2.02l-1.3 3.2c-0.42,1.01 -1.02,1.52 -1.83,1.52 -0.32,0 -0.59,-0.1 -0.82,-0.3 -0.22,-0.2 -0.33,-0.44 -0.33,-0.73 0,-0.22 0.06,-0.48 0.17,-0.77l0.13 -0.31 5.06 -12.48c0.44,-1.07 1.04,-1.61 1.81,-1.61 0.32,0 0.59,0.11 0.82,0.32 0.23,0.21 0.34,0.47 0.34,0.77 0,0.25 -0.09,0.62 -0.3,1.1l-2.2 5.44z"/>
  <path id="3" class="fil0" d="M86.02 29.17c1.12,0 2.05,0.36 2.77,1.07 0.73,0.72 1.09,1.62 1.09,2.72 0,0.83 -0.19,1.65 -0.57,2.47 -0.38,0.82 -0.87,1.47 -1.48,1.96 -0.4,0.32 -0.82,0.53 -1.25,0.66 -0.43,0.12 -1.03,0.18 -1.8,0.18 -1.27,0 -2.12,-0.15 -2.57,-0.46 -1.03,-0.71 -1.55,-1.76 -1.55,-3.16 0,-1.47 0.53,-2.74 1.59,-3.82 1.06,-1.08 2.32,-1.62 3.77,-1.62zm-0.28 2.48c-0.58,0 -1.1,0.28 -1.56,0.85 -0.48,0.57 -0.71,1.19 -0.71,1.87 0,0.91 0.5,1.35 1.5,1.35 0.59,0 1.04,-0.18 1.36,-0.54 0.52,-0.6 0.78,-1.28 0.78,-2.05 0,-0.44 -0.12,-0.8 -0.38,-1.07 -0.25,-0.27 -0.58,-0.41 -0.99,-0.41z"/>
  <path id="4" class="fil0" d="M93.02 37.32l-3.03 7.46c-0.43,1.03 -1.04,1.55 -1.84,1.55 -0.31,0 -0.58,-0.11 -0.8,-0.31 -0.22,-0.21 -0.33,-0.45 -0.33,-0.74 0,-0.24 0.09,-0.6 0.29,-1.09l5.61 -13.83c0.28,-0.69 0.78,-1.04 1.48,-1.04 0.49,0 0.88,0.23 1.17,0.69 0.54,-0.56 1.21,-0.84 1.99,-0.84 0.82,0 1.47,0.31 1.98,0.93 0.5,0.61 0.75,1.42 0.75,2.43 0,1.91 -0.6,3.46 -1.78,4.66 -0.39,0.4 -0.79,0.67 -1.2,0.81 -0.42,0.15 -0.99,0.23 -1.73,0.23 -0.79,0 -1.33,-0.06 -1.64,-0.17 -0.29,-0.1 -0.6,-0.35 -0.92,-0.74zm0.95 -2.38c0.2,0.34 0.38,0.56 0.56,0.66 0.17,0.1 0.45,0.15 0.83,0.15 0.55,0 0.98,-0.21 1.29,-0.62 0.63,-0.83 0.95,-1.68 0.95,-2.56 0,-0.76 -0.36,-1.13 -1.07,-1.13 -0.79,0 -1.35,0.45 -1.7,1.36 -0.03,0.11 -0.06,0.19 -0.09,0.26l-0.77 1.88z"/>
  <path id="5" class="fil0" d="M21.24 29.82c0.81,-0.43 1.48,-0.65 2,-0.65 0.75,0 1.36,0.21 1.84,0.63 0.47,0.41 0.71,0.94 0.71,1.58 0,0.39 -0.09,0.81 -0.28,1.27l-1.22 3.05 1.34 0c0.98,0 1.47,0.35 1.47,1.03 0,0.47 -0.17,0.84 -0.52,1.1 -0.35,0.27 -0.83,0.4 -1.45,0.4l-2.34 0c-0.5,0 -0.92,-0.15 -1.26,-0.43 -0.33,-0.28 -0.5,-0.63 -0.5,-1.04 0,-0.28 0.09,-0.63 0.27,-1.07l1.08 -2.62c0.13,-0.34 0.19,-0.59 0.19,-0.76 0,-0.44 -0.29,-0.66 -0.88,-0.66 -0.79,0 -1.46,0.68 -2,2.02l-1.31 3.2c-0.41,1.01 -1.02,1.52 -1.83,1.52 -0.31,0 -0.58,-0.1 -0.81,-0.3 -0.23,-0.2 -0.34,-0.44 -0.34,-0.73 0,-0.22 0.06,-0.48 0.18,-0.77l0.12 -0.31 5.06 -12.48c0.45,-1.07 1.05,-1.61 1.82,-1.61 0.32,0 0.59,0.11 0.82,0.32 0.23,0.21 0.34,0.47 0.34,0.77 0,0.25 -0.1,0.62 -0.3,1.1l-2.2 5.44z"/>
  <path id="6" class="fil0" d="M32.93 29.17c1.12,0 2.04,0.36 2.77,1.07 0.72,0.72 1.08,1.62 1.08,2.72 0,0.83 -0.19,1.65 -0.56,2.47 -0.38,0.82 -0.88,1.47 -1.48,1.96 -0.4,0.32 -0.82,0.53 -1.25,0.66 -0.43,0.12 -1.03,0.18 -1.81,0.18 -1.26,0 -2.11,-0.15 -2.56,-0.46 -1.03,-0.71 -1.56,-1.76 -1.56,-3.16 0,-1.47 0.54,-2.74 1.6,-3.82 1.06,-1.08 2.32,-1.62 3.77,-1.62zm-0.29 2.48c-0.57,0 -1.09,0.28 -1.56,0.85 -0.47,0.57 -0.7,1.19 -0.7,1.87 0,0.91 0.5,1.35 1.5,1.35 0.59,0 1.04,-0.18 1.36,-0.54 0.52,-0.6 0.78,-1.28 0.78,-2.05 0,-0.44 -0.13,-0.8 -0.38,-1.07 -0.25,-0.27 -0.59,-0.41 -1,-0.41z"/>
  <path id="7" class="fil0" d="M40.2 34.82c0,0.59 0.43,0.88 1.31,0.88l3.45 0c0.99,0 1.47,0.35 1.47,1.03 0,0.47 -0.17,0.84 -0.52,1.1 -0.34,0.27 -0.83,0.4 -1.45,0.4l-3.29 0c-1.23,0 -2.16,-0.31 -2.8,-0.91 -0.64,-0.6 -0.97,-1.49 -0.97,-2.65 0,-1.49 0.51,-2.78 1.52,-3.87 1.01,-1.08 2.22,-1.63 3.61,-1.63 1.02,0 1.84,0.27 2.45,0.8 0.62,0.53 0.93,1.23 0.93,2.1 0,1.04 -0.42,1.82 -1.28,2.32 -0.47,0.29 -1.17,0.43 -2.11,0.43l-2.32 0zm0.55 -2.12l1.28 0c0.83,0 1.24,-0.18 1.21,-0.54 -0.02,-0.4 -0.29,-0.6 -0.8,-0.6 -0.72,0 -1.28,0.38 -1.69,1.14z"/>
  <path class="fil0" d="M30.92 2.79l-4.03 9.93c-0.98,2.4 -1.72,4.04 -2.23,4.91 -0.51,0.86 -1.17,1.61 -1.98,2.25 -1.19,0.91 -2.55,1.37 -4.07,1.37 -1.64,0 -2.97,-0.51 -3.99,-1.54 -1.02,-1.03 -1.53,-2.37 -1.53,-4.03 0,-2.18 0.8,-4.09 2.41,-5.73 0.86,-0.88 1.94,-1.58 3.24,-2.12 1.3,-0.54 2.58,-0.8 3.84,-0.8 0.61,0 1.1,0.14 1.48,0.41 0.37,0.28 0.56,0.64 0.56,1.08 0,0.48 -0.2,0.87 -0.61,1.15 -0.22,0.17 -0.67,0.28 -1.35,0.35 -1.55,0.14 -2.8,0.49 -3.74,1.06 -0.79,0.48 -1.42,1.11 -1.88,1.87 -0.46,0.76 -0.69,1.56 -0.69,2.41 0,0.87 0.23,1.56 0.69,2.06 0.46,0.5 1.08,0.76 1.86,0.76 0.94,0 1.75,-0.41 2.45,-1.21 0.7,-0.81 1.46,-2.23 2.28,-4.25l4.03 -9.93 -2.27 0c-1.07,0 -1.6,-0.38 -1.6,-1.15 0,-0.51 0.19,-0.91 0.57,-1.2 0.38,-0.29 0.9,-0.44 1.58,-0.44l7.64 0 0.3 0 0.82 0.19c0.32,0.18 0.48,0.49 0.48,0.95 0,0.52 -0.19,0.92 -0.57,1.21 -0.38,0.29 -0.9,0.44 -1.58,0.44l-2.11 0z"/>
  <path id="1" class="fil0" d="M35.36 13.37l1.32 0c0.97,0 1.45,0.34 1.45,1.03 0,0.47 -0.17,0.84 -0.51,1.1 -0.34,0.26 -0.82,0.39 -1.44,0.39l-1.85 0c-0.69,0 -1.22,-0.14 -1.61,-0.42 -0.4,-0.28 -0.59,-0.66 -0.59,-1.14 0,-0.26 0.08,-0.58 0.25,-0.98l1.92 -4.73 0.13 -0.33c0.35,-0.87 0.92,-1.31 1.72,-1.31 0.32,0 0.61,0.11 0.84,0.33 0.24,0.21 0.36,0.48 0.36,0.78 0,0.25 -0.11,0.63 -0.32,1.14l-1.67 4.14zm1.54 -10.11c0.45,0 0.83,0.16 1.14,0.48 0.32,0.31 0.48,0.69 0.48,1.14 0,0.45 -0.16,0.84 -0.48,1.15 -0.31,0.32 -0.69,0.47 -1.14,0.47 -0.45,0 -0.84,-0.15 -1.15,-0.47 -0.32,-0.31 -0.47,-0.7 -0.47,-1.15 0,-0.45 0.15,-0.83 0.47,-1.14 0.31,-0.32 0.7,-0.48 1.15,-0.48z"/>
  <path id="2" class="fil0" d="M41.11 14.98l-3.04 7.47c-0.42,1.03 -1.03,1.54 -1.83,1.54 -0.31,0 -0.58,-0.1 -0.8,-0.31 -0.22,-0.2 -0.33,-0.45 -0.33,-0.74 0,-0.24 0.09,-0.6 0.29,-1.09l5.6 -13.82c0.29,-0.7 0.79,-1.05 1.49,-1.05 0.49,0 0.88,0.23 1.17,0.7 0.54,-0.56 1.2,-0.84 1.99,-0.84 0.81,0 1.47,0.31 1.98,0.92 0.5,0.62 0.75,1.43 0.75,2.44 0,1.9 -0.6,3.46 -1.78,4.65 -0.39,0.4 -0.79,0.67 -1.2,0.82 -0.42,0.15 -0.99,0.22 -1.73,0.22 -0.79,0 -1.33,-0.05 -1.64,-0.16 -0.29,-0.11 -0.6,-0.36 -0.92,-0.75zm0.95 -2.37c0.2,0.33 0.38,0.55 0.56,0.65 0.17,0.1 0.45,0.15 0.83,0.15 0.55,0 0.98,-0.2 1.29,-0.62 0.63,-0.83 0.95,-1.68 0.95,-2.56 0,-0.75 -0.36,-1.13 -1.08,-1.13 -0.78,0 -1.34,0.46 -1.69,1.37 -0.03,0.1 -0.06,0.18 -0.09,0.25l-0.77 1.89z"/>
  <path id="3" class="fil0" d="M71.5 2.79l-4.02 9.93c-0.98,2.4 -1.72,4.04 -2.23,4.91 -0.52,0.86 -1.17,1.61 -1.98,2.25 -1.19,0.91 -2.55,1.37 -4.07,1.37 -1.64,0 -2.97,-0.51 -3.99,-1.54 -1.02,-1.03 -1.53,-2.37 -1.53,-4.03 0,-2.18 0.8,-4.09 2.41,-5.73 0.86,-0.88 1.94,-1.58 3.24,-2.12 1.29,-0.54 2.58,-0.8 3.84,-0.8 0.61,0 1.1,0.14 1.48,0.41 0.37,0.28 0.56,0.64 0.56,1.08 0,0.48 -0.2,0.87 -0.61,1.15 -0.22,0.17 -0.67,0.28 -1.35,0.35 -1.55,0.14 -2.8,0.49 -3.74,1.06 -0.8,0.48 -1.42,1.11 -1.88,1.87 -0.46,0.76 -0.69,1.56 -0.69,2.41 0,0.87 0.23,1.56 0.69,2.06 0.46,0.5 1.08,0.76 1.86,0.76 0.94,0 1.75,-0.41 2.45,-1.21 0.7,-0.81 1.46,-2.23 2.28,-4.25l4.03 -9.93 -2.27 0c-1.07,0 -1.6,-0.38 -1.6,-1.15 0,-0.51 0.19,-0.91 0.56,-1.2 0.39,-0.29 0.91,-0.44 1.59,-0.44l7.64 0 0.3 0 0.81 0.19c0.33,0.18 0.49,0.49 0.49,0.95 0,0.52 -0.2,0.92 -0.57,1.21 -0.38,0.29 -0.9,0.44 -1.58,0.44l-2.12 0z"/>
  <path id="4" class="fil0" d="M78.1 6.84c1.13,0 2.05,0.36 2.78,1.07 0.72,0.71 1.08,1.62 1.08,2.72 0,0.83 -0.19,1.65 -0.56,2.47 -0.39,0.81 -0.88,1.46 -1.48,1.95 -0.41,0.32 -0.82,0.54 -1.25,0.66 -0.43,0.12 -1.03,0.18 -1.81,0.18 -1.27,0 -2.12,-0.15 -2.56,-0.45 -1.04,-0.72 -1.56,-1.77 -1.56,-3.16 0,-1.48 0.54,-2.75 1.6,-3.83 1.06,-1.07 2.31,-1.61 3.76,-1.61zm-0.28 2.48c-0.57,0 -1.09,0.28 -1.56,0.85 -0.47,0.56 -0.71,1.19 -0.71,1.87 0,0.9 0.51,1.35 1.51,1.35 0.59,0 1.04,-0.18 1.35,-0.55 0.53,-0.59 0.79,-1.28 0.79,-2.05 0,-0.44 -0.13,-0.8 -0.38,-1.07 -0.26,-0.27 -0.59,-0.4 -1,-0.4z"/>
  <path id="5" class="fil0" d="M85.1 14.98l-3.03 7.47c-0.42,1.03 -1.03,1.54 -1.84,1.54 -0.31,0 -0.57,-0.1 -0.8,-0.31 -0.21,-0.2 -0.33,-0.45 -0.33,-0.74 0,-0.24 0.1,-0.6 0.29,-1.09l5.61 -13.82c0.29,-0.7 0.78,-1.05 1.49,-1.05 0.49,0 0.88,0.23 1.16,0.7 0.55,-0.56 1.21,-0.84 2,-0.84 0.81,0 1.47,0.31 1.97,0.92 0.5,0.62 0.76,1.43 0.76,2.44 0,1.9 -0.6,3.46 -1.79,4.65 -0.39,0.4 -0.78,0.67 -1.2,0.82 -0.41,0.15 -0.99,0.22 -1.72,0.22 -0.79,0 -1.34,-0.05 -1.64,-0.16 -0.3,-0.11 -0.61,-0.36 -0.93,-0.75zm0.96 -2.37c0.19,0.33 0.38,0.55 0.55,0.65 0.18,0.1 0.46,0.15 0.84,0.15 0.55,0 0.98,-0.2 1.29,-0.62 0.63,-0.83 0.94,-1.68 0.94,-2.56 0,-0.75 -0.35,-1.13 -1.07,-1.13 -0.79,0 -1.35,0.46 -1.69,1.37 -0.04,0.1 -0.07,0.18 -0.09,0.25l-0.77 1.89z"/>
 </g>
</svg>
